<?xml version="1.0" encoding="UTF-8" standalone="no"?>
<!DOCTYPE svg PUBLIC "-//W3C//DTD SVG 1.1//EN"
 "http://www.w3.org/Graphics/SVG/1.1/DTD/svg11.dtd">
<!-- Generated by graphviz version 2.40.1 (20161225.0304)
 -->
<!-- Title: dependencies Pages: 1 -->
<svg width="504pt" height="284pt"
 viewBox="0.00 0.00 504.00 284.00" xmlns="http://www.w3.org/2000/svg" xmlns:xlink="http://www.w3.org/1999/xlink">
<g id="graph0" class="graph" transform="scale(1 1) rotate(0) translate(4 280)">
<title>dependencies</title>
<polygon fill="#ffffff" stroke="transparent" points="-4,4 -4,-280 500,-280 500,4 -4,4"/>
<text text-anchor="start" x="227.0091" y="-42.4" font-family="sans-serif" font-weight="bold" font-size="14.00" fill="#000000">Legend</text>
<polygon fill="#ffffb3" stroke="transparent" points="14,-10 14,-30 34,-30 34,-10 14,-10"/>
<text text-anchor="start" x="37.629" y="-15.4" font-family="sans-serif" font-size="14.00" fill="#000000"> &#160;Declarations</text>
<polygon fill="#8dd3c7" stroke="transparent" points="127,-10 127,-30 147,-30 147,-10 127,-10"/>
<text text-anchor="start" x="150.7251" y="-15.4" font-family="sans-serif" font-size="14.00" fill="#000000"> &#160;Module</text>
<polygon fill="#80b1d3" stroke="transparent" points="213,-10 213,-30 233,-30 233,-10 213,-10"/>
<text text-anchor="start" x="236.7812" y="-15.4" font-family="sans-serif" font-size="14.00" fill="#000000"> &#160;Bootstrap</text>
<polygon fill="#fdb462" stroke="transparent" points="310,-10 310,-30 330,-30 330,-10 310,-10"/>
<text text-anchor="start" x="333.6732" y="-15.4" font-family="sans-serif" font-size="14.00" fill="#000000"> &#160;Providers</text>
<polygon fill="#fb8072" stroke="transparent" points="406,-10 406,-30 426,-30 426,-10 406,-10"/>
<text text-anchor="start" x="429.7258" y="-15.4" font-family="sans-serif" font-size="14.00" fill="#000000"> &#160;Exports</text>
<g id="clust1" class="cluster">
<title>cluster_CoreModule</title>
<polygon fill="none" stroke="#000000" stroke-dasharray="1,5" points="45,-70 45,-268 451,-268 451,-70 45,-70"/>
</g>
<g id="clust2" class="cluster">
<title>cluster_CoreModule_declarations</title>
<polygon fill="none" stroke="#000000" points="305,-78 305,-130 443,-130 443,-78 305,-78"/>
</g>
<g id="clust4" class="cluster">
<title>cluster_CoreModule_imports</title>
<polygon fill="none" stroke="#000000" points="53,-78 53,-130 297,-130 297,-78 53,-78"/>
</g>
<g id="clust5" class="cluster">
<title>cluster_CoreModule_exports</title>
<polygon fill="none" stroke="#000000" points="162,-208 162,-260 304,-260 304,-208 162,-208"/>
</g>
<!-- HeaderComponent -->
<g id="node1" class="node">
<title>HeaderComponent</title>
<polygon fill="#ffffb3" stroke="#000000" points="434.7437,-122 313.2563,-122 313.2563,-86 434.7437,-86 434.7437,-122"/>
<text text-anchor="middle" x="374" y="-99.8" font-family="Times,serif" font-size="14.00" fill="#000000">HeaderComponent</text>
</g>
<!-- CoreModule -->
<g id="node2" class="node">
<title>CoreModule</title>
<polygon fill="#8dd3c7" stroke="#000000" points="276.2619,-187 273.2619,-191 252.2619,-191 249.2619,-187 189.7381,-187 189.7381,-151 276.2619,-151 276.2619,-187"/>
<text text-anchor="middle" x="233" y="-164.8" font-family="Times,serif" font-size="14.00" fill="#000000">CoreModule</text>
</g>
<!-- HeaderComponent&#45;&gt;CoreModule -->
<g id="edge1" class="edge">
<title>HeaderComponent&#45;&gt;CoreModule</title>
<path fill="none" stroke="#000000" d="M374,-122.1061C374,-141.3391 374,-169 374,-169 374,-169 286.4552,-169 286.4552,-169"/>
<polygon fill="#000000" stroke="#000000" points="286.4552,-165.5001 276.4552,-169 286.4551,-172.5001 286.4552,-165.5001"/>
</g>
<!-- HeaderComponent  -->
<g id="node5" class="node">
<title>HeaderComponent </title>
<polygon fill="#fb8072" stroke="#000000" points="295.7436,-252 170.2564,-252 170.2564,-216 295.7436,-216 295.7436,-252"/>
<text text-anchor="middle" x="233" y="-229.8" font-family="Times,serif" font-size="14.00" fill="#000000">HeaderComponent </text>
</g>
<!-- CoreModule&#45;&gt;HeaderComponent  -->
<g id="edge4" class="edge">
<title>CoreModule&#45;&gt;HeaderComponent </title>
<path fill="none" stroke="#000000" stroke-dasharray="5,2" d="M233,-187.1061C233,-187.1061 233,-205.991 233,-205.991"/>
<polygon fill="#000000" stroke="#000000" points="229.5001,-205.9909 233,-215.991 236.5001,-205.991 229.5001,-205.9909"/>
</g>
<!-- CommonModule -->
<g id="node3" class="node">
<title>CommonModule</title>
<polygon fill="#8dd3c7" stroke="#000000" points="288.6681,-122 285.6681,-126 264.6681,-126 261.6681,-122 177.3319,-122 177.3319,-86 288.6681,-86 288.6681,-122"/>
<text text-anchor="middle" x="233" y="-99.8" font-family="Times,serif" font-size="14.00" fill="#000000">CommonModule</text>
</g>
<!-- CommonModule&#45;&gt;CoreModule -->
<g id="edge2" class="edge">
<title>CommonModule&#45;&gt;CoreModule</title>
<path fill="none" stroke="#000000" d="M233,-122.1061C233,-122.1061 233,-140.991 233,-140.991"/>
<polygon fill="#000000" stroke="#000000" points="229.5001,-140.9909 233,-150.991 236.5001,-140.991 229.5001,-140.9909"/>
</g>
<!-- RouterModule -->
<g id="node4" class="node">
<title>RouterModule</title>
<polygon fill="#8dd3c7" stroke="#000000" points="158.6528,-122 155.6528,-126 134.6528,-126 131.6528,-122 61.3472,-122 61.3472,-86 158.6528,-86 158.6528,-122"/>
<text text-anchor="middle" x="110" y="-99.8" font-family="Times,serif" font-size="14.00" fill="#000000">RouterModule</text>
</g>
<!-- RouterModule&#45;&gt;CoreModule -->
<g id="edge3" class="edge">
<title>RouterModule&#45;&gt;CoreModule</title>
<path fill="none" stroke="#000000" d="M110,-122.1061C110,-141.3391 110,-169 110,-169 110,-169 179.6348,-169 179.6348,-169"/>
<polygon fill="#000000" stroke="#000000" points="179.6348,-172.5001 189.6348,-169 179.6348,-165.5001 179.6348,-172.5001"/>
</g>
</g>
</svg>
