<?xml version="1.0" encoding="UTF-8" standalone="no"?>
<!DOCTYPE svg PUBLIC "-//W3C//DTD SVG 1.1//EN"
 "http://www.w3.org/Graphics/SVG/1.1/DTD/svg11.dtd">
<!-- Generated by graphviz version 2.40.1 (20161225.0304)
 -->
<!-- Title: dependencies Pages: 1 -->
<svg width="566pt" height="284pt"
 viewBox="0.00 0.00 566.00 284.00" xmlns="http://www.w3.org/2000/svg" xmlns:xlink="http://www.w3.org/1999/xlink">
<g id="graph0" class="graph" transform="scale(1 1) rotate(0) translate(4 280)">
<title>dependencies</title>
<polygon fill="#ffffff" stroke="transparent" points="-4,4 -4,-280 562,-280 562,4 -4,4"/>
<text text-anchor="start" x="258.0091" y="-42.4" font-family="sans-serif" font-weight="bold" font-size="14.00" fill="#000000">Legend</text>
<polygon fill="#ffffb3" stroke="transparent" points="45,-10 45,-30 65,-30 65,-10 45,-10"/>
<text text-anchor="start" x="68.629" y="-15.4" font-family="sans-serif" font-size="14.00" fill="#000000"> &#160;Declarations</text>
<polygon fill="#8dd3c7" stroke="transparent" points="158,-10 158,-30 178,-30 178,-10 158,-10"/>
<text text-anchor="start" x="181.7251" y="-15.4" font-family="sans-serif" font-size="14.00" fill="#000000"> &#160;Module</text>
<polygon fill="#80b1d3" stroke="transparent" points="244,-10 244,-30 264,-30 264,-10 244,-10"/>
<text text-anchor="start" x="267.7812" y="-15.4" font-family="sans-serif" font-size="14.00" fill="#000000"> &#160;Bootstrap</text>
<polygon fill="#fdb462" stroke="transparent" points="341,-10 341,-30 361,-30 361,-10 341,-10"/>
<text text-anchor="start" x="364.6732" y="-15.4" font-family="sans-serif" font-size="14.00" fill="#000000"> &#160;Providers</text>
<polygon fill="#fb8072" stroke="transparent" points="437,-10 437,-30 457,-30 457,-10 437,-10"/>
<text text-anchor="start" x="460.7258" y="-15.4" font-family="sans-serif" font-size="14.00" fill="#000000"> &#160;Exports</text>
<g id="clust1" class="cluster">
<title>cluster_AppStateModule</title>
<polygon fill="none" stroke="#000000" stroke-dasharray="1,5" points="8,-70 8,-268 550,-268 550,-70 8,-70"/>
</g>
<g id="clust3" class="cluster">
<title>cluster_AppStateModule_imports</title>
<polygon fill="none" stroke="#000000" points="16,-78 16,-130 542,-130 542,-78 16,-78"/>
</g>
<g id="clust4" class="cluster">
<title>cluster_AppStateModule_exports</title>
<polygon fill="none" stroke="#000000" points="153,-208 153,-260 261,-260 261,-208 153,-208"/>
</g>
<!-- StoreModule.provideStore(args) -->
<g id="node1" class="node">
<title>StoreModule.provideStore(args)</title>
<polygon fill="#8dd3c7" stroke="#000000" points="533.5539,-122 530.5539,-126 509.5539,-126 506.5539,-122 336.4461,-122 336.4461,-86 533.5539,-86 533.5539,-122"/>
<text text-anchor="middle" x="435" y="-99.8" font-family="Times,serif" font-size="14.00" fill="#000000">StoreModule.provideStore(args)</text>
</g>
<!-- AppStateModule -->
<g id="node4" class="node">
<title>AppStateModule</title>
<polygon fill="#8dd3c7" stroke="#000000" points="262.6499,-187 259.6499,-191 238.6499,-191 235.6499,-187 151.3501,-187 151.3501,-151 262.6499,-151 262.6499,-187"/>
<text text-anchor="middle" x="207" y="-164.8" font-family="Times,serif" font-size="14.00" fill="#000000">AppStateModule</text>
</g>
<!-- StoreModule.provideStore(args)&#45;&gt;AppStateModule -->
<g id="edge1" class="edge">
<title>StoreModule.provideStore(args)&#45;&gt;AppStateModule</title>
<path fill="none" stroke="#000000" d="M435,-122.1061C435,-141.3391 435,-169 435,-169 435,-169 272.7751,-169 272.7751,-169"/>
<polygon fill="#000000" stroke="#000000" points="272.7751,-165.5001 262.7751,-169 272.775,-172.5001 272.7751,-165.5001"/>
</g>
<!-- RouterStoreModule.connectRouter() -->
<g id="node2" class="node">
<title>RouterStoreModule.connectRouter()</title>
<polygon fill="#8dd3c7" stroke="#000000" points="317.6589,-122 314.6589,-126 293.6589,-126 290.6589,-122 96.3411,-122 96.3411,-86 317.6589,-86 317.6589,-122"/>
<text text-anchor="middle" x="207" y="-99.8" font-family="Times,serif" font-size="14.00" fill="#000000">RouterStoreModule.connectRouter()</text>
</g>
<!-- RouterStoreModule.connectRouter()&#45;&gt;AppStateModule -->
<g id="edge2" class="edge">
<title>RouterStoreModule.connectRouter()&#45;&gt;AppStateModule</title>
<path fill="none" stroke="#000000" d="M207,-122.1061C207,-122.1061 207,-140.991 207,-140.991"/>
<polygon fill="#000000" stroke="#000000" points="203.5001,-140.9909 207,-150.991 210.5001,-140.991 203.5001,-140.9909"/>
</g>
<!-- { &#160;} -->
<g id="node3" class="node">
<title>{ &#160;}</title>
<polygon fill="#8dd3c7" stroke="#000000" points="78,-122 75,-126 54,-126 51,-122 24,-122 24,-86 78,-86 78,-122"/>
<text text-anchor="middle" x="51" y="-99.8" font-family="Times,serif" font-size="14.00" fill="#000000">{ &#160;}</text>
</g>
<!-- { &#160;}&#45;&gt;AppStateModule -->
<g id="edge3" class="edge">
<title>{ &#160;}&#45;&gt;AppStateModule</title>
<path fill="none" stroke="#000000" d="M51,-122.1061C51,-141.3391 51,-169 51,-169 51,-169 141.121,-169 141.121,-169"/>
<polygon fill="#000000" stroke="#000000" points="141.1211,-172.5001 151.121,-169 141.121,-165.5001 141.1211,-172.5001"/>
</g>
<!-- StoreModule  -->
<g id="node5" class="node">
<title>StoreModule </title>
<polygon fill="#fb8072" stroke="#000000" points="253.0991,-252 160.9009,-252 160.9009,-216 253.0991,-216 253.0991,-252"/>
<text text-anchor="middle" x="207" y="-229.8" font-family="Times,serif" font-size="14.00" fill="#000000">StoreModule </text>
</g>
<!-- AppStateModule&#45;&gt;StoreModule  -->
<g id="edge4" class="edge">
<title>AppStateModule&#45;&gt;StoreModule </title>
<path fill="none" stroke="#000000" stroke-dasharray="5,2" d="M207,-187.1061C207,-187.1061 207,-205.991 207,-205.991"/>
<polygon fill="#000000" stroke="#000000" points="203.5001,-205.9909 207,-215.991 210.5001,-205.991 203.5001,-205.9909"/>
</g>
</g>
</svg>
